<mxfile host="65bd71144e">
    <diagram id="S_faYMRFQXcnsALS5liH" name="Huffman">
        <mxGraphModel dx="1414" dy="682" grid="1" gridSize="10" guides="1" tooltips="1" connect="1" arrows="1" fold="1" page="1" pageScale="1" pageWidth="850" pageHeight="1100" math="0" shadow="0">
            <root>
                <mxCell id="0"/>
                <mxCell id="1" parent="0"/>
                <mxCell id="bHmVS1OD5DssWyzfUEvp-15" value="O" style="ellipse;whiteSpace=wrap;html=1;aspect=fixed;" vertex="1" parent="1">
                    <mxGeometry x="845" y="800" width="40" height="40" as="geometry"/>
                </mxCell>
                <mxCell id="bHmVS1OD5DssWyzfUEvp-16" value="R" style="ellipse;whiteSpace=wrap;html=1;aspect=fixed;" vertex="1" parent="1">
                    <mxGeometry x="905" y="800" width="40" height="40" as="geometry"/>
                </mxCell>
                <mxCell id="bHmVS1OD5DssWyzfUEvp-17" value="T" style="ellipse;whiteSpace=wrap;html=1;aspect=fixed;" vertex="1" parent="1">
                    <mxGeometry x="965" y="800" width="40" height="40" as="geometry"/>
                </mxCell>
                <mxCell id="bHmVS1OD5DssWyzfUEvp-18" value="H" style="ellipse;whiteSpace=wrap;html=1;aspect=fixed;" vertex="1" parent="1">
                    <mxGeometry x="1025" y="800" width="40" height="40" as="geometry"/>
                </mxCell>
                <mxCell id="bHmVS1OD5DssWyzfUEvp-19" value="M" style="ellipse;whiteSpace=wrap;html=1;aspect=fixed;" vertex="1" parent="1">
                    <mxGeometry x="1085" y="800" width="40" height="40" as="geometry"/>
                </mxCell>
                <mxCell id="bHmVS1OD5DssWyzfUEvp-20" value="E" style="ellipse;whiteSpace=wrap;html=1;aspect=fixed;" vertex="1" parent="1">
                    <mxGeometry x="1145" y="800" width="40" height="40" as="geometry"/>
                </mxCell>
                <mxCell id="bHmVS1OD5DssWyzfUEvp-26" value="D" style="ellipse;whiteSpace=wrap;html=1;aspect=fixed;" vertex="1" parent="1">
                    <mxGeometry x="755" y="720" width="40" height="40" as="geometry"/>
                </mxCell>
                <mxCell id="bHmVS1OD5DssWyzfUEvp-29" value="0" style="edgeStyle=none;html=1;entryX=0.5;entryY=0;entryDx=0;entryDy=0;exitX=0.5;exitY=1;exitDx=0;exitDy=0;" edge="1" parent="1" source="bHmVS1OD5DssWyzfUEvp-27" target="bHmVS1OD5DssWyzfUEvp-15">
                    <mxGeometry relative="1" as="geometry"/>
                </mxCell>
                <mxCell id="bHmVS1OD5DssWyzfUEvp-30" value="1" style="edgeStyle=none;html=1;exitX=0.5;exitY=1;exitDx=0;exitDy=0;entryX=0.5;entryY=0;entryDx=0;entryDy=0;" edge="1" parent="1" source="bHmVS1OD5DssWyzfUEvp-27" target="bHmVS1OD5DssWyzfUEvp-16">
                    <mxGeometry relative="1" as="geometry"/>
                </mxCell>
                <mxCell id="bHmVS1OD5DssWyzfUEvp-27" value="2" style="whiteSpace=wrap;html=1;aspect=fixed;" vertex="1" parent="1">
                    <mxGeometry x="875" y="720" width="40" height="40" as="geometry"/>
                </mxCell>
                <mxCell id="bHmVS1OD5DssWyzfUEvp-32" value="0" style="edgeStyle=none;html=1;exitX=0.5;exitY=1;exitDx=0;exitDy=0;entryX=0.5;entryY=0;entryDx=0;entryDy=0;" edge="1" parent="1" source="bHmVS1OD5DssWyzfUEvp-31" target="bHmVS1OD5DssWyzfUEvp-17">
                    <mxGeometry relative="1" as="geometry"/>
                </mxCell>
                <mxCell id="bHmVS1OD5DssWyzfUEvp-33" value="1" style="edgeStyle=none;html=1;exitX=0.5;exitY=1;exitDx=0;exitDy=0;entryX=0.5;entryY=0;entryDx=0;entryDy=0;" edge="1" parent="1" source="bHmVS1OD5DssWyzfUEvp-31" target="bHmVS1OD5DssWyzfUEvp-18">
                    <mxGeometry relative="1" as="geometry"/>
                </mxCell>
                <mxCell id="bHmVS1OD5DssWyzfUEvp-31" value="2" style="whiteSpace=wrap;html=1;aspect=fixed;" vertex="1" parent="1">
                    <mxGeometry x="995" y="720" width="40" height="40" as="geometry"/>
                </mxCell>
                <mxCell id="bHmVS1OD5DssWyzfUEvp-35" value="0" style="edgeStyle=none;html=1;exitX=0.5;exitY=1;exitDx=0;exitDy=0;entryX=0.5;entryY=0;entryDx=0;entryDy=0;" edge="1" parent="1" source="bHmVS1OD5DssWyzfUEvp-34" target="bHmVS1OD5DssWyzfUEvp-19">
                    <mxGeometry relative="1" as="geometry"/>
                </mxCell>
                <mxCell id="bHmVS1OD5DssWyzfUEvp-36" value="1" style="edgeStyle=none;html=1;exitX=0.5;exitY=1;exitDx=0;exitDy=0;entryX=0.5;entryY=0;entryDx=0;entryDy=0;" edge="1" parent="1" source="bHmVS1OD5DssWyzfUEvp-34" target="bHmVS1OD5DssWyzfUEvp-20">
                    <mxGeometry relative="1" as="geometry"/>
                </mxCell>
                <mxCell id="bHmVS1OD5DssWyzfUEvp-34" value="2" style="whiteSpace=wrap;html=1;aspect=fixed;" vertex="1" parent="1">
                    <mxGeometry x="1115" y="720" width="40" height="40" as="geometry"/>
                </mxCell>
                <mxCell id="bHmVS1OD5DssWyzfUEvp-37" value="I" style="ellipse;whiteSpace=wrap;html=1;aspect=fixed;" vertex="1" parent="1">
                    <mxGeometry x="1235" y="720" width="40" height="40" as="geometry"/>
                </mxCell>
                <mxCell id="bHmVS1OD5DssWyzfUEvp-39" value="0" style="edgeStyle=none;html=1;exitX=0.5;exitY=1;exitDx=0;exitDy=0;entryX=0.5;entryY=0;entryDx=0;entryDy=0;" edge="1" parent="1" source="bHmVS1OD5DssWyzfUEvp-38" target="bHmVS1OD5DssWyzfUEvp-34">
                    <mxGeometry relative="1" as="geometry"/>
                </mxCell>
                <mxCell id="bHmVS1OD5DssWyzfUEvp-40" value="1" style="edgeStyle=none;html=1;exitX=0.5;exitY=1;exitDx=0;exitDy=0;entryX=0.5;entryY=0;entryDx=0;entryDy=0;" edge="1" parent="1" source="bHmVS1OD5DssWyzfUEvp-38" target="bHmVS1OD5DssWyzfUEvp-37">
                    <mxGeometry relative="1" as="geometry"/>
                </mxCell>
                <mxCell id="bHmVS1OD5DssWyzfUEvp-38" value="5" style="whiteSpace=wrap;html=1;aspect=fixed;" vertex="1" parent="1">
                    <mxGeometry x="1175" y="640" width="40" height="40" as="geometry"/>
                </mxCell>
                <mxCell id="bHmVS1OD5DssWyzfUEvp-45" value="0" style="edgeStyle=none;html=1;exitX=0.5;exitY=1;exitDx=0;exitDy=0;entryX=0.5;entryY=0;entryDx=0;entryDy=0;" edge="1" parent="1" source="bHmVS1OD5DssWyzfUEvp-44" target="bHmVS1OD5DssWyzfUEvp-27">
                    <mxGeometry relative="1" as="geometry"/>
                </mxCell>
                <mxCell id="bHmVS1OD5DssWyzfUEvp-46" value="1" style="edgeStyle=none;html=1;exitX=0.5;exitY=1;exitDx=0;exitDy=0;entryX=0.5;entryY=0;entryDx=0;entryDy=0;" edge="1" parent="1" source="bHmVS1OD5DssWyzfUEvp-44" target="bHmVS1OD5DssWyzfUEvp-31">
                    <mxGeometry relative="1" as="geometry"/>
                </mxCell>
                <mxCell id="bHmVS1OD5DssWyzfUEvp-44" value="4" style="whiteSpace=wrap;html=1;aspect=fixed;" vertex="1" parent="1">
                    <mxGeometry x="935" y="640" width="40" height="40" as="geometry"/>
                </mxCell>
                <mxCell id="bHmVS1OD5DssWyzfUEvp-47" value="G" style="ellipse;whiteSpace=wrap;html=1;aspect=fixed;" vertex="1" parent="1">
                    <mxGeometry x="635" y="720" width="40" height="40" as="geometry"/>
                </mxCell>
                <mxCell id="bHmVS1OD5DssWyzfUEvp-48" value="L" style="ellipse;whiteSpace=wrap;html=1;aspect=fixed;" vertex="1" parent="1">
                    <mxGeometry x="520" y="720" width="40" height="40" as="geometry"/>
                </mxCell>
                <mxCell id="bHmVS1OD5DssWyzfUEvp-49" value="Y" style="ellipse;whiteSpace=wrap;html=1;aspect=fixed;" vertex="1" parent="1">
                    <mxGeometry x="385" y="720" width="40" height="40" as="geometry"/>
                </mxCell>
                <mxCell id="bHmVS1OD5DssWyzfUEvp-51" value="0" style="edgeStyle=none;html=1;exitX=0.5;exitY=1;exitDx=0;exitDy=0;entryX=0.5;entryY=0;entryDx=0;entryDy=0;" edge="1" parent="1" source="bHmVS1OD5DssWyzfUEvp-50" target="bHmVS1OD5DssWyzfUEvp-47">
                    <mxGeometry relative="1" as="geometry"/>
                </mxCell>
                <mxCell id="bHmVS1OD5DssWyzfUEvp-52" value="1" style="edgeStyle=none;html=1;exitX=0.5;exitY=1;exitDx=0;exitDy=0;entryX=0.5;entryY=0;entryDx=0;entryDy=0;" edge="1" parent="1" source="bHmVS1OD5DssWyzfUEvp-50" target="bHmVS1OD5DssWyzfUEvp-26">
                    <mxGeometry relative="1" as="geometry"/>
                </mxCell>
                <mxCell id="bHmVS1OD5DssWyzfUEvp-50" value="4" style="whiteSpace=wrap;html=1;aspect=fixed;" vertex="1" parent="1">
                    <mxGeometry x="695" y="640" width="40" height="40" as="geometry"/>
                </mxCell>
                <mxCell id="bHmVS1OD5DssWyzfUEvp-54" value="0" style="edgeStyle=none;html=1;exitX=0.5;exitY=1;exitDx=0;exitDy=0;entryX=0.5;entryY=0;entryDx=0;entryDy=0;" edge="1" parent="1" source="bHmVS1OD5DssWyzfUEvp-53" target="bHmVS1OD5DssWyzfUEvp-49">
                    <mxGeometry relative="1" as="geometry"/>
                </mxCell>
                <mxCell id="bHmVS1OD5DssWyzfUEvp-55" value="1" style="edgeStyle=none;html=1;exitX=0.5;exitY=1;exitDx=0;exitDy=0;entryX=0.5;entryY=0;entryDx=0;entryDy=0;" edge="1" parent="1" source="bHmVS1OD5DssWyzfUEvp-53" target="bHmVS1OD5DssWyzfUEvp-48">
                    <mxGeometry relative="1" as="geometry"/>
                </mxCell>
                <mxCell id="bHmVS1OD5DssWyzfUEvp-53" value="3" style="whiteSpace=wrap;html=1;aspect=fixed;" vertex="1" parent="1">
                    <mxGeometry x="455" y="640" width="40" height="40" as="geometry"/>
                </mxCell>
                <mxCell id="bHmVS1OD5DssWyzfUEvp-56" value="A" style="ellipse;whiteSpace=wrap;html=1;aspect=fixed;" vertex="1" parent="1">
                    <mxGeometry x="575" y="640" width="40" height="40" as="geometry"/>
                </mxCell>
                <mxCell id="bHmVS1OD5DssWyzfUEvp-58" value="0" style="edgeStyle=none;html=1;exitX=0.5;exitY=1;exitDx=0;exitDy=0;entryX=0.5;entryY=0;entryDx=0;entryDy=0;" edge="1" parent="1" source="bHmVS1OD5DssWyzfUEvp-57" target="bHmVS1OD5DssWyzfUEvp-56">
                    <mxGeometry relative="1" as="geometry"/>
                </mxCell>
                <mxCell id="bHmVS1OD5DssWyzfUEvp-59" value="1" style="edgeStyle=none;html=1;exitX=0.5;exitY=1;exitDx=0;exitDy=0;entryX=0.5;entryY=0;entryDx=0;entryDy=0;" edge="1" parent="1" source="bHmVS1OD5DssWyzfUEvp-57" target="bHmVS1OD5DssWyzfUEvp-50">
                    <mxGeometry relative="1" as="geometry"/>
                </mxCell>
                <mxCell id="bHmVS1OD5DssWyzfUEvp-57" value="8" style="whiteSpace=wrap;html=1;aspect=fixed;" vertex="1" parent="1">
                    <mxGeometry x="635" y="560" width="40" height="40" as="geometry"/>
                </mxCell>
                <mxCell id="bHmVS1OD5DssWyzfUEvp-61" value="0" style="edgeStyle=none;html=1;exitX=0.5;exitY=1;exitDx=0;exitDy=0;entryX=0.5;entryY=0;entryDx=0;entryDy=0;" edge="1" parent="1" source="bHmVS1OD5DssWyzfUEvp-60" target="bHmVS1OD5DssWyzfUEvp-44">
                    <mxGeometry relative="1" as="geometry"/>
                </mxCell>
                <mxCell id="bHmVS1OD5DssWyzfUEvp-62" value="1" style="edgeStyle=none;html=1;exitX=0.5;exitY=1;exitDx=0;exitDy=0;entryX=0.5;entryY=0;entryDx=0;entryDy=0;" edge="1" parent="1" source="bHmVS1OD5DssWyzfUEvp-60" target="bHmVS1OD5DssWyzfUEvp-38">
                    <mxGeometry relative="1" as="geometry"/>
                </mxCell>
                <mxCell id="bHmVS1OD5DssWyzfUEvp-60" value="9" style="whiteSpace=wrap;html=1;aspect=fixed;" vertex="1" parent="1">
                    <mxGeometry x="1055" y="560" width="40" height="40" as="geometry"/>
                </mxCell>
                <mxCell id="bHmVS1OD5DssWyzfUEvp-63" value="N" style="ellipse;whiteSpace=wrap;html=1;aspect=fixed;" vertex="1" parent="1">
                    <mxGeometry x="335" y="640" width="40" height="40" as="geometry"/>
                </mxCell>
                <mxCell id="bHmVS1OD5DssWyzfUEvp-64" value="S" style="ellipse;whiteSpace=wrap;html=1;aspect=fixed;" vertex="1" parent="1">
                    <mxGeometry x="215" y="640" width="40" height="40" as="geometry"/>
                </mxCell>
                <mxCell id="bHmVS1OD5DssWyzfUEvp-65" value="" style="ellipse;whiteSpace=wrap;html=1;aspect=fixed;" vertex="1" parent="1">
                    <mxGeometry x="95" y="640" width="40" height="40" as="geometry"/>
                </mxCell>
                <mxCell id="bHmVS1OD5DssWyzfUEvp-67" value="0" style="edgeStyle=none;html=1;exitX=0.5;exitY=1;exitDx=0;exitDy=0;entryX=0.5;entryY=0;entryDx=0;entryDy=0;" edge="1" parent="1" source="bHmVS1OD5DssWyzfUEvp-66" target="bHmVS1OD5DssWyzfUEvp-65">
                    <mxGeometry relative="1" as="geometry"/>
                </mxCell>
                <mxCell id="bHmVS1OD5DssWyzfUEvp-68" value="1" style="edgeStyle=none;html=1;exitX=0.5;exitY=1;exitDx=0;exitDy=0;entryX=0.5;entryY=0;entryDx=0;entryDy=0;" edge="1" parent="1" source="bHmVS1OD5DssWyzfUEvp-66" target="bHmVS1OD5DssWyzfUEvp-64">
                    <mxGeometry relative="1" as="geometry"/>
                </mxCell>
                <mxCell id="bHmVS1OD5DssWyzfUEvp-66" value="6" style="whiteSpace=wrap;html=1;aspect=fixed;" vertex="1" parent="1">
                    <mxGeometry x="160" y="560" width="40" height="40" as="geometry"/>
                </mxCell>
                <mxCell id="bHmVS1OD5DssWyzfUEvp-70" value="0" style="edgeStyle=none;html=1;exitX=0.5;exitY=1;exitDx=0;exitDy=0;entryX=0.5;entryY=0;entryDx=0;entryDy=0;" edge="1" parent="1" source="bHmVS1OD5DssWyzfUEvp-69" target="bHmVS1OD5DssWyzfUEvp-63">
                    <mxGeometry relative="1" as="geometry"/>
                </mxCell>
                <mxCell id="bHmVS1OD5DssWyzfUEvp-71" value="1" style="edgeStyle=none;html=1;exitX=0.5;exitY=1;exitDx=0;exitDy=0;entryX=0.5;entryY=0;entryDx=0;entryDy=0;" edge="1" parent="1" source="bHmVS1OD5DssWyzfUEvp-69" target="bHmVS1OD5DssWyzfUEvp-53">
                    <mxGeometry relative="1" as="geometry"/>
                </mxCell>
                <mxCell id="bHmVS1OD5DssWyzfUEvp-69" value="6" style="whiteSpace=wrap;html=1;aspect=fixed;" vertex="1" parent="1">
                    <mxGeometry x="395" y="560" width="40" height="40" as="geometry"/>
                </mxCell>
                <mxCell id="bHmVS1OD5DssWyzfUEvp-73" value="0" style="edgeStyle=none;html=1;exitX=0.5;exitY=1;exitDx=0;exitDy=0;entryX=0.5;entryY=0;entryDx=0;entryDy=0;" edge="1" parent="1" source="bHmVS1OD5DssWyzfUEvp-72" target="bHmVS1OD5DssWyzfUEvp-66">
                    <mxGeometry relative="1" as="geometry"/>
                </mxCell>
                <mxCell id="bHmVS1OD5DssWyzfUEvp-74" value="1" style="edgeStyle=none;html=1;exitX=0.5;exitY=1;exitDx=0;exitDy=0;entryX=0.5;entryY=0;entryDx=0;entryDy=0;" edge="1" parent="1" source="bHmVS1OD5DssWyzfUEvp-72" target="bHmVS1OD5DssWyzfUEvp-69">
                    <mxGeometry relative="1" as="geometry"/>
                </mxCell>
                <mxCell id="bHmVS1OD5DssWyzfUEvp-72" value="12" style="whiteSpace=wrap;html=1;aspect=fixed;" vertex="1" parent="1">
                    <mxGeometry x="280" y="480" width="40" height="40" as="geometry"/>
                </mxCell>
                <mxCell id="bHmVS1OD5DssWyzfUEvp-76" value="0" style="edgeStyle=none;html=1;exitX=0.5;exitY=1;exitDx=0;exitDy=0;entryX=0.5;entryY=0;entryDx=0;entryDy=0;" edge="1" parent="1" source="bHmVS1OD5DssWyzfUEvp-75" target="bHmVS1OD5DssWyzfUEvp-57">
                    <mxGeometry relative="1" as="geometry"/>
                </mxCell>
                <mxCell id="bHmVS1OD5DssWyzfUEvp-77" value="1" style="edgeStyle=none;html=1;exitX=0.5;exitY=1;exitDx=0;exitDy=0;entryX=0.5;entryY=0;entryDx=0;entryDy=0;" edge="1" parent="1" source="bHmVS1OD5DssWyzfUEvp-75" target="bHmVS1OD5DssWyzfUEvp-60">
                    <mxGeometry relative="1" as="geometry"/>
                </mxCell>
                <mxCell id="bHmVS1OD5DssWyzfUEvp-75" value="17" style="whiteSpace=wrap;html=1;aspect=fixed;" vertex="1" parent="1">
                    <mxGeometry x="845" y="480" width="40" height="40" as="geometry"/>
                </mxCell>
                <mxCell id="bHmVS1OD5DssWyzfUEvp-79" value="0" style="edgeStyle=none;html=1;exitX=0.5;exitY=1;exitDx=0;exitDy=0;entryX=0.5;entryY=0;entryDx=0;entryDy=0;" edge="1" parent="1" source="bHmVS1OD5DssWyzfUEvp-78" target="bHmVS1OD5DssWyzfUEvp-72">
                    <mxGeometry relative="1" as="geometry"/>
                </mxCell>
                <mxCell id="bHmVS1OD5DssWyzfUEvp-80" value="1" style="edgeStyle=none;html=1;exitX=0.5;exitY=1;exitDx=0;exitDy=0;entryX=0.5;entryY=0;entryDx=0;entryDy=0;" edge="1" parent="1" source="bHmVS1OD5DssWyzfUEvp-78" target="bHmVS1OD5DssWyzfUEvp-75">
                    <mxGeometry relative="1" as="geometry"/>
                </mxCell>
                <mxCell id="bHmVS1OD5DssWyzfUEvp-78" value="29" style="whiteSpace=wrap;html=1;aspect=fixed;" vertex="1" parent="1">
                    <mxGeometry x="570" y="400" width="40" height="40" as="geometry"/>
                </mxCell>
            </root>
        </mxGraphModel>
    </diagram>
    <diagram id="LK6hJKa1zRqKV95Y7jC8" name="Bayesian">
        <mxGraphModel dx="1401" dy="784" grid="1" gridSize="10" guides="1" tooltips="1" connect="1" arrows="1" fold="1" page="1" pageScale="1" pageWidth="850" pageHeight="1100" math="0" shadow="0">
            <root>
                <mxCell id="0"/>
                <mxCell id="1" parent="0"/>
                <mxCell id="10" style="edgeStyle=none;html=1;entryX=0;entryY=0.5;entryDx=0;entryDy=0;" parent="1" source="6" target="7" edge="1">
                    <mxGeometry relative="1" as="geometry"/>
                </mxCell>
                <mxCell id="6" value="Internship" style="ellipse;whiteSpace=wrap;html=1;" parent="1" vertex="1">
                    <mxGeometry x="80" y="200" width="120" height="80" as="geometry"/>
                </mxCell>
                <mxCell id="11" style="edgeStyle=none;html=1;exitX=1;exitY=0.5;exitDx=0;exitDy=0;entryX=0;entryY=1;entryDx=0;entryDy=0;" parent="1" source="7" target="8" edge="1">
                    <mxGeometry relative="1" as="geometry"/>
                </mxCell>
                <mxCell id="13" style="edgeStyle=none;html=1;exitX=1;exitY=0.5;exitDx=0;exitDy=0;entryX=0;entryY=0;entryDx=0;entryDy=0;" parent="1" source="7" target="9" edge="1">
                    <mxGeometry relative="1" as="geometry"/>
                </mxCell>
                <mxCell id="7" value="Happy" style="ellipse;whiteSpace=wrap;html=1;" parent="1" vertex="1">
                    <mxGeometry x="240" y="200" width="120" height="80" as="geometry"/>
                </mxCell>
                <mxCell id="8" value="Finish" style="ellipse;whiteSpace=wrap;html=1;" parent="1" vertex="1">
                    <mxGeometry x="400" y="120" width="120" height="80" as="geometry"/>
                </mxCell>
                <mxCell id="9" value="Recruited" style="ellipse;whiteSpace=wrap;html=1;" parent="1" vertex="1">
                    <mxGeometry x="400" y="280" width="120" height="80" as="geometry"/>
                </mxCell>
                <mxCell id="19" value="Internship P(I)" style="shape=table;startSize=30;container=1;collapsible=1;childLayout=tableLayout;fixedRows=1;rowLines=0;fontStyle=1;align=center;resizeLast=1;" parent="1" vertex="1">
                    <mxGeometry x="80" y="300" width="120" height="90" as="geometry"/>
                </mxCell>
                <mxCell id="23" value="" style="shape=tableRow;horizontal=0;startSize=0;swimlaneHead=0;swimlaneBody=0;fillColor=none;collapsible=0;dropTarget=0;points=[[0,0.5],[1,0.5]];portConstraint=eastwest;top=0;left=0;right=0;bottom=1;" parent="19" vertex="1">
                    <mxGeometry y="30" width="120" height="30" as="geometry"/>
                </mxCell>
                <mxCell id="24" value="T " style="shape=partialRectangle;connectable=0;fillColor=none;top=0;left=0;bottom=0;right=0;fontStyle=0;overflow=hidden;" parent="23" vertex="1">
                    <mxGeometry width="60" height="30" as="geometry">
                        <mxRectangle width="60" height="30" as="alternateBounds"/>
                    </mxGeometry>
                </mxCell>
                <mxCell id="25" value="0.5" style="shape=partialRectangle;connectable=0;fillColor=none;top=0;left=0;bottom=0;right=0;align=left;spacingLeft=6;fontStyle=0;overflow=hidden;" parent="23" vertex="1">
                    <mxGeometry x="60" width="60" height="30" as="geometry">
                        <mxRectangle width="60" height="30" as="alternateBounds"/>
                    </mxGeometry>
                </mxCell>
                <mxCell id="26" value="" style="shape=tableRow;horizontal=0;startSize=0;swimlaneHead=0;swimlaneBody=0;fillColor=none;collapsible=0;dropTarget=0;points=[[0,0.5],[1,0.5]];portConstraint=eastwest;top=0;left=0;right=0;bottom=0;" parent="19" vertex="1">
                    <mxGeometry y="60" width="120" height="30" as="geometry"/>
                </mxCell>
                <mxCell id="27" value="F" style="shape=partialRectangle;connectable=0;fillColor=none;top=0;left=0;bottom=0;right=0;editable=1;overflow=hidden;" parent="26" vertex="1">
                    <mxGeometry width="60" height="30" as="geometry">
                        <mxRectangle width="60" height="30" as="alternateBounds"/>
                    </mxGeometry>
                </mxCell>
                <mxCell id="28" value="0.5" style="shape=partialRectangle;connectable=0;fillColor=none;top=0;left=0;bottom=0;right=0;align=left;spacingLeft=6;overflow=hidden;" parent="26" vertex="1">
                    <mxGeometry x="60" width="60" height="30" as="geometry">
                        <mxRectangle width="60" height="30" as="alternateBounds"/>
                    </mxGeometry>
                </mxCell>
                <mxCell id="32" value="I P(H)" style="shape=table;startSize=30;container=1;collapsible=1;childLayout=tableLayout;fixedRows=1;rowLines=0;fontStyle=1;align=center;resizeLast=1;" parent="1" vertex="1">
                    <mxGeometry x="240" y="300" width="120" height="90" as="geometry"/>
                </mxCell>
                <mxCell id="33" value="" style="shape=tableRow;horizontal=0;startSize=0;swimlaneHead=0;swimlaneBody=0;fillColor=none;collapsible=0;dropTarget=0;points=[[0,0.5],[1,0.5]];portConstraint=eastwest;top=0;left=0;right=0;bottom=1;" parent="32" vertex="1">
                    <mxGeometry y="30" width="120" height="30" as="geometry"/>
                </mxCell>
                <mxCell id="34" value="T " style="shape=partialRectangle;connectable=0;fillColor=none;top=0;left=0;bottom=0;right=0;fontStyle=0;overflow=hidden;" parent="33" vertex="1">
                    <mxGeometry width="60" height="30" as="geometry">
                        <mxRectangle width="60" height="30" as="alternateBounds"/>
                    </mxGeometry>
                </mxCell>
                <mxCell id="35" value="0.6" style="shape=partialRectangle;connectable=0;fillColor=none;top=0;left=0;bottom=0;right=0;align=left;spacingLeft=6;fontStyle=0;overflow=hidden;" parent="33" vertex="1">
                    <mxGeometry x="60" width="60" height="30" as="geometry">
                        <mxRectangle width="60" height="30" as="alternateBounds"/>
                    </mxGeometry>
                </mxCell>
                <mxCell id="36" value="" style="shape=tableRow;horizontal=0;startSize=0;swimlaneHead=0;swimlaneBody=0;fillColor=none;collapsible=0;dropTarget=0;points=[[0,0.5],[1,0.5]];portConstraint=eastwest;top=0;left=0;right=0;bottom=0;" parent="32" vertex="1">
                    <mxGeometry y="60" width="120" height="30" as="geometry"/>
                </mxCell>
                <mxCell id="37" value="F" style="shape=partialRectangle;connectable=0;fillColor=none;top=0;left=0;bottom=0;right=0;editable=1;overflow=hidden;" parent="36" vertex="1">
                    <mxGeometry width="60" height="30" as="geometry">
                        <mxRectangle width="60" height="30" as="alternateBounds"/>
                    </mxGeometry>
                </mxCell>
                <mxCell id="38" value="0.3" style="shape=partialRectangle;connectable=0;fillColor=none;top=0;left=0;bottom=0;right=0;align=left;spacingLeft=6;overflow=hidden;" parent="36" vertex="1">
                    <mxGeometry x="60" width="60" height="30" as="geometry">
                        <mxRectangle width="60" height="30" as="alternateBounds"/>
                    </mxGeometry>
                </mxCell>
                <mxCell id="39" value="H P(F)" style="shape=table;startSize=30;container=1;collapsible=1;childLayout=tableLayout;fixedRows=1;rowLines=0;fontStyle=1;align=center;resizeLast=1;" parent="1" vertex="1">
                    <mxGeometry x="540" y="115" width="120" height="90" as="geometry"/>
                </mxCell>
                <mxCell id="40" value="" style="shape=tableRow;horizontal=0;startSize=0;swimlaneHead=0;swimlaneBody=0;fillColor=none;collapsible=0;dropTarget=0;points=[[0,0.5],[1,0.5]];portConstraint=eastwest;top=0;left=0;right=0;bottom=1;" parent="39" vertex="1">
                    <mxGeometry y="30" width="120" height="30" as="geometry"/>
                </mxCell>
                <mxCell id="41" value="T " style="shape=partialRectangle;connectable=0;fillColor=none;top=0;left=0;bottom=0;right=0;fontStyle=0;overflow=hidden;" parent="40" vertex="1">
                    <mxGeometry width="60" height="30" as="geometry">
                        <mxRectangle width="60" height="30" as="alternateBounds"/>
                    </mxGeometry>
                </mxCell>
                <mxCell id="42" value="0.7" style="shape=partialRectangle;connectable=0;fillColor=none;top=0;left=0;bottom=0;right=0;align=left;spacingLeft=6;fontStyle=0;overflow=hidden;" parent="40" vertex="1">
                    <mxGeometry x="60" width="60" height="30" as="geometry">
                        <mxRectangle width="60" height="30" as="alternateBounds"/>
                    </mxGeometry>
                </mxCell>
                <mxCell id="43" value="" style="shape=tableRow;horizontal=0;startSize=0;swimlaneHead=0;swimlaneBody=0;fillColor=none;collapsible=0;dropTarget=0;points=[[0,0.5],[1,0.5]];portConstraint=eastwest;top=0;left=0;right=0;bottom=0;" parent="39" vertex="1">
                    <mxGeometry y="60" width="120" height="30" as="geometry"/>
                </mxCell>
                <mxCell id="44" value="F" style="shape=partialRectangle;connectable=0;fillColor=none;top=0;left=0;bottom=0;right=0;editable=1;overflow=hidden;" parent="43" vertex="1">
                    <mxGeometry width="60" height="30" as="geometry">
                        <mxRectangle width="60" height="30" as="alternateBounds"/>
                    </mxGeometry>
                </mxCell>
                <mxCell id="45" value="0.1" style="shape=partialRectangle;connectable=0;fillColor=none;top=0;left=0;bottom=0;right=0;align=left;spacingLeft=6;overflow=hidden;" parent="43" vertex="1">
                    <mxGeometry x="60" width="60" height="30" as="geometry">
                        <mxRectangle width="60" height="30" as="alternateBounds"/>
                    </mxGeometry>
                </mxCell>
                <mxCell id="46" value="H P(R)" style="shape=table;startSize=30;container=1;collapsible=1;childLayout=tableLayout;fixedRows=1;rowLines=0;fontStyle=1;align=center;resizeLast=1;" parent="1" vertex="1">
                    <mxGeometry x="540" y="275" width="120" height="90" as="geometry"/>
                </mxCell>
                <mxCell id="47" value="" style="shape=tableRow;horizontal=0;startSize=0;swimlaneHead=0;swimlaneBody=0;fillColor=none;collapsible=0;dropTarget=0;points=[[0,0.5],[1,0.5]];portConstraint=eastwest;top=0;left=0;right=0;bottom=1;" parent="46" vertex="1">
                    <mxGeometry y="30" width="120" height="30" as="geometry"/>
                </mxCell>
                <mxCell id="48" value="T " style="shape=partialRectangle;connectable=0;fillColor=none;top=0;left=0;bottom=0;right=0;fontStyle=0;overflow=hidden;" parent="47" vertex="1">
                    <mxGeometry width="60" height="30" as="geometry">
                        <mxRectangle width="60" height="30" as="alternateBounds"/>
                    </mxGeometry>
                </mxCell>
                <mxCell id="49" value="0.7" style="shape=partialRectangle;connectable=0;fillColor=none;top=0;left=0;bottom=0;right=0;align=left;spacingLeft=6;fontStyle=0;overflow=hidden;" parent="47" vertex="1">
                    <mxGeometry x="60" width="60" height="30" as="geometry">
                        <mxRectangle width="60" height="30" as="alternateBounds"/>
                    </mxGeometry>
                </mxCell>
                <mxCell id="50" value="" style="shape=tableRow;horizontal=0;startSize=0;swimlaneHead=0;swimlaneBody=0;fillColor=none;collapsible=0;dropTarget=0;points=[[0,0.5],[1,0.5]];portConstraint=eastwest;top=0;left=0;right=0;bottom=0;" parent="46" vertex="1">
                    <mxGeometry y="60" width="120" height="30" as="geometry"/>
                </mxCell>
                <mxCell id="51" value="F" style="shape=partialRectangle;connectable=0;fillColor=none;top=0;left=0;bottom=0;right=0;editable=1;overflow=hidden;" parent="50" vertex="1">
                    <mxGeometry width="60" height="30" as="geometry">
                        <mxRectangle width="60" height="30" as="alternateBounds"/>
                    </mxGeometry>
                </mxCell>
                <mxCell id="52" value="0.2" style="shape=partialRectangle;connectable=0;fillColor=none;top=0;left=0;bottom=0;right=0;align=left;spacingLeft=6;overflow=hidden;" parent="50" vertex="1">
                    <mxGeometry x="60" width="60" height="30" as="geometry">
                        <mxRectangle width="60" height="30" as="alternateBounds"/>
                    </mxGeometry>
                </mxCell>
            </root>
        </mxGraphModel>
    </diagram>
    <diagram id="6jLCTJjgV8RnzZC7X95S" name="Page-3">
        <mxGraphModel dx="1626" dy="784" grid="1" gridSize="10" guides="1" tooltips="1" connect="1" arrows="1" fold="1" page="1" pageScale="1" pageWidth="850" pageHeight="1100" math="0" shadow="0">
            <root>
                <mxCell id="0"/>
                <mxCell id="1" parent="0"/>
            </root>
        </mxGraphModel>
    </diagram>
</mxfile>